<?xml version="1.0" standalone="no"?><svg xmlns="http://www.w3.org/2000/svg" viewBox="0 0 1440 320"><path fill="orange" fill-opacity="1" d="M0,0L0,32L36.9,32L36.9,32L73.8,32L73.8,128L110.8,128L110.8,256L147.7,256L147.7,64L184.6,64L184.6,0L221.5,0L221.5,256L258.5,256L258.5,160L295.4,160L295.4,256L332.3,256L332.3,192L369.2,192L369.2,224L406.2,224L406.2,192L443.1,192L443.1,192L480,192L480,128L516.9,128L516.9,64L553.8,64L553.8,96L590.8,96L590.8,32L627.7,32L627.7,192L664.6,192L664.6,288L701.5,288L701.5,256L738.5,256L738.5,128L775.4,128L775.4,320L812.3,320L812.3,160L849.2,160L849.2,224L886.2,224L886.2,64L923.1,64L923.1,64L960,64L960,32L996.9,32L996.9,160L1033.8,160L1033.8,32L1070.8,32L1070.8,64L1107.7,64L1107.7,192L1144.6,192L1144.6,64L1181.5,64L1181.5,128L1218.5,128L1218.5,32L1255.4,32L1255.4,96L1292.3,96L1292.3,224L1329.2,224L1329.2,96L1366.2,96L1366.2,256L1403.1,256L1403.1,256L1440,256L1440,320L1403.1,320L1403.1,320L1366.2,320L1366.2,320L1329.2,320L1329.2,320L1292.3,320L1292.3,320L1255.4,320L1255.4,320L1218.5,320L1218.5,320L1181.5,320L1181.5,320L1144.6,320L1144.6,320L1107.7,320L1107.7,320L1070.8,320L1070.8,320L1033.8,320L1033.8,320L996.9,320L996.9,320L960,320L960,320L923.1,320L923.1,320L886.2,320L886.2,320L849.2,320L849.2,320L812.3,320L812.3,320L775.4,320L775.4,320L738.5,320L738.5,320L701.5,320L701.5,320L664.6,320L664.6,320L627.7,320L627.7,320L590.8,320L590.8,320L553.8,320L553.8,320L516.9,320L516.9,320L480,320L480,320L443.1,320L443.1,320L406.2,320L406.2,320L369.2,320L369.2,320L332.3,320L332.3,320L295.4,320L295.4,320L258.5,320L258.5,320L221.5,320L221.5,320L184.6,320L184.6,320L147.7,320L147.7,320L110.8,320L110.8,320L73.8,320L73.8,320L36.9,320L36.9,320L0,320L0,320Z"></path></svg>